<svg width="32" height="26" viewBox="0 0 32 26" fill="none" xmlns="http://www.w3.org/2000/svg">
<g clip-path="url(#clip0)">
<path d="M16 1.625C7.1625 1.625 -2.3786e-06 6.35273 -2.3786e-06 12.1875C-2.3786e-06 14.6047 1.24375 16.8187 3.30625 18.6012C2.375 20.602 0.437498 22.298 0.406248 22.3184C-0.00625238 22.6738 -0.118752 23.1918 0.118748 23.6387C0.356248 24.0855 0.899997 24.375 1.5 24.375C5.34375 24.375 8.375 23.0699 10.1937 22.0238C12 22.4859 13.95 22.75 16 22.75C24.8375 22.75 32 18.0223 32 12.1875C32 6.35273 24.8375 1.625 16 1.625ZM16 20.3125C14.3312 20.3125 12.6812 20.1043 11.1 19.698L9.68125 19.3324L8.4625 20.0332C7.56875 20.5461 6.34375 21.1199 4.86875 21.5059C5.325 20.8914 5.76875 20.2008 6.1125 19.4645L6.775 18.0375L5.4875 16.9305C4.35625 15.9504 3 14.3305 3 12.1875C3 7.70859 8.83125 4.0625 16 4.0625C23.1687 4.0625 29 7.70859 29 12.1875C29 16.6664 23.1687 20.3125 16 20.3125Z" fill="black"/>
</g>
<defs>
<clipPath id="clip0">
<rect width="32" height="26" fill="white"/>
</clipPath>
</defs>
</svg>
