
<svg width="244" height="250" viewBox="0 0 244 250" fill="none" xmlns="http://www.w3.org/2000/svg">
<rect width="244" height="250" rx="34" fill="#F5F6FA"/>
<path d="M106.029 59.3548C106.051 58.5178 106.137 57.683 106.286 56.8562C106.344 56.4998 106.433 56.1478 106.551 55.8031C106.631 55.5496 106.691 55.2916 106.731 55.0308C106.88 54.2624 106.777 53.4725 106.434 52.7539C106.304 52.487 106.088 52.2597 105.813 52.0999C105.538 51.9402 105.215 51.8552 104.886 51.8554C104.756 51.8339 104.623 51.8345 104.494 51.8572C103.823 52.0097 103.211 52.3163 102.719 52.7456C102.588 52.8403 102.466 52.9287 102.358 52.9993C101.851 53.3278 101.348 53.6683 100.844 54.0105C100.384 54.322 99.9233 54.635 99.4548 54.9402L99.3196 55.0356C98.8757 55.3241 98.4234 55.6015 97.9692 55.8797L97.4305 56.211C97.097 56.4194 96.7621 56.6163 96.4267 56.8133C96.347 56.8605 96.25 56.9077 96.1493 56.9576C95.8437 57.0841 95.5718 57.2659 95.3514 57.4913C95.2003 57.6703 95.107 57.8821 95.0814 58.1041C95.0558 58.3261 95.0988 58.55 95.206 58.7522C95.3954 59.0763 95.6676 59.3574 96.0011 59.5733C96.3346 59.7893 96.7204 59.9342 97.1282 59.9967C97.8791 60.0431 98.6266 59.8723 99.2571 59.5103C99.523 59.3757 99.7839 59.228 100.041 59.0822C100.417 58.856 100.811 58.6551 101.221 58.4811C101.316 58.4445 101.413 58.4126 101.512 58.3857C101.75 59.7819 101.751 61.2016 101.515 62.5981C101.439 63.2966 101.368 63.9566 101.348 64.596C101.27 66.6691 101.228 68.9302 101.22 71.5063C101.213 72.1027 101.228 72.7564 101.248 73.4723C101.254 73.7315 101.26 73.9918 101.282 74.2618C101.299 74.7054 101.32 75.169 101.345 75.6824C101.324 75.6992 101.299 75.7166 101.272 75.7359L101.218 75.7767C100.823 75.9861 100.395 76.1429 99.9476 76.242L99.6753 76.3169C99.4451 76.3837 99.1644 76.4448 98.8607 76.511C97.4279 76.8246 95.2633 77.2981 95.4809 79.0317C95.5448 79.3397 95.6772 79.6335 95.8703 79.8963C96.0634 80.1592 96.3136 80.3859 96.6064 80.5634C96.9439 80.7847 97.3509 80.9084 97.7715 80.9173C98.1921 80.9262 98.6055 80.82 98.9547 80.6133C99.066 80.5711 99.179 80.5287 99.2953 80.4886L99.5852 80.3849C99.7664 80.3193 99.9476 80.2534 100.152 80.1906C100.837 79.9398 101.537 79.7203 102.248 79.533C102.257 79.5224 102.297 79.5403 102.36 79.575C102.543 79.6898 102.71 79.823 102.858 79.9719C103.059 80.1888 103.31 80.3663 103.594 80.4932C104.008 80.6031 104.444 80.6305 104.872 80.5735C105.544 80.521 106.19 80.3174 106.747 79.982C106.946 79.8666 107.106 79.7056 107.209 79.5164C107.313 79.3271 107.355 79.1167 107.333 78.9077C107.317 78.7788 107.279 78.6116 107.232 78.4116L107.195 78.2535C107.165 78.1402 107.147 78.0428 107.131 77.957L107.099 77.7901C107.736 77.4633 108.435 77.2408 109.163 77.1334L109.609 77.0368C110.437 76.909 111.226 76.6349 111.93 76.2308C112.366 75.9554 112.344 75.3516 112.29 74.9216C112.271 74.7831 112.239 74.6464 112.192 74.5131C112.053 74.0757 111.825 73.664 111.519 73.2979C111.381 73.139 111.178 73.0337 110.953 73.0044C110.598 73.0005 110.248 73.0788 109.939 73.2315C109.856 73.2642 109.778 73.2953 109.709 73.3182C109.301 73.4529 108.892 73.585 108.483 73.7147C107.732 73.9618 106.968 74.1745 106.193 74.352C106.129 74.3658 106.076 74.3762 106.033 74.3835C106.019 74.3358 106.004 74.287 105.988 74.237L105.969 74.1766C105.919 73.9861 105.882 73.7931 105.86 73.5985C105.847 73.5036 105.839 73.4081 105.838 73.3125L105.812 73.1108C105.807 73.0179 105.799 72.9281 105.791 72.8413C105.784 72.7532 105.776 72.6681 105.773 72.5844C105.768 72.4989 105.762 72.4192 105.756 72.3448C105.749 72.2685 105.743 72.1982 105.74 72.1015C105.731 72.0295 105.727 71.9675 105.723 71.9137C105.72 71.8609 105.717 71.8142 105.712 71.7736C105.393 68.1051 105.467 64.4184 105.935 60.7623C105.98 60.2878 106.005 59.8194 106.029 59.3548Z" fill="#2E79BD"/>
<path d="M120.107 63.3673C119.789 63.4024 119.457 63.446 119.11 63.4982L118.695 63.5609C117.817 63.6945 116.91 63.835 116.013 63.9047C115.893 63.9145 115.737 63.9149 115.565 63.9163C114.774 63.9223 113.692 63.9309 113.341 64.6083C113.158 64.9275 113.085 65.2871 113.132 65.6424C113.179 65.9977 113.343 66.333 113.605 66.6066C113.904 66.7958 114.253 66.9136 114.619 66.9484C114.985 66.9832 115.355 66.9339 115.693 66.8052C115.866 66.7667 116.041 66.7361 116.217 66.7133C117.373 66.5903 118.506 66.4776 119.632 66.4514C119.832 66.4472 120.015 66.4353 120.179 66.4246L120.231 66.4214L120.239 66.6114C120.262 67.1701 120.283 67.68 120.289 68.1365L120.293 68.2245C120.292 68.2471 120.293 68.2699 120.297 68.2923C120.244 69.1438 120.321 69.9976 120.525 70.8311C120.763 71.5838 121.464 71.909 122.608 71.7975L122.618 71.7965C122.826 71.7942 123.032 71.7545 123.222 71.68C123.412 71.6055 123.583 71.4977 123.725 71.3632C123.822 71.225 123.886 71.0706 123.913 70.9096C123.94 70.7485 123.929 70.5844 123.88 70.4274C123.844 70.2485 123.821 70.0575 123.792 69.8295L123.78 69.7366C123.641 68.7062 123.579 67.6689 123.594 66.6314C123.621 66.4557 123.65 66.3008 123.702 66.1029C123.849 66.0877 123.98 66.0716 124.078 66.0545C124.273 66.0492 124.467 66.0301 124.658 65.9971C125.484 65.8553 126.323 65.7753 127.164 65.7578C127.356 65.7525 127.554 65.758 127.754 65.7632C128.227 65.7954 128.704 65.7687 129.168 65.6839C129.353 65.6551 129.529 65.5935 129.685 65.5027C129.842 65.412 129.976 65.2941 130.078 65.1562C130.274 64.756 130.282 64.3038 130.101 63.8985C130.042 63.5788 129.876 63.2821 129.623 63.0466C129.371 62.811 129.044 62.6476 128.686 62.5772C127.677 62.4339 126.647 62.4648 125.652 62.6682C125.034 62.7742 124.408 62.8333 123.779 62.8447C123.639 62.8427 123.505 62.8352 123.391 62.8275C123.248 62.2429 123.14 61.6523 123.067 61.0579C123.053 60.9449 123.049 60.7661 123.043 60.5484C123.009 59.3141 122.917 58.0641 122.224 57.5308C122.104 57.4377 121.963 57.3682 121.811 57.3268C121.658 57.2854 121.497 57.2731 121.339 57.2908C121.093 57.3067 120.854 57.3683 120.638 57.4713C120.421 57.5744 120.232 57.7167 120.082 57.8889C119.357 58.7505 119.689 60.3024 119.956 61.5497C120.062 61.9652 120.13 62.3875 120.16 62.8127C120.158 62.9848 120.142 63.1567 120.114 63.327L120.107 63.3673Z" fill="#2E79BD"/>
<path d="M145.529 63.8819C145.118 64.3211 144.694 64.7616 144.254 65.1923C143.681 65.7558 143.083 66.3069 142.48 66.8277C141.312 67.8289 140.042 68.7336 138.686 69.5307C138.092 69.8749 137.548 70.191 137.047 70.5144C135.894 71.242 134.935 72.1818 134.236 73.2686L134.193 73.341C134.17 73.3795 134.146 73.4183 134.13 73.4499C133.532 74.541 133.171 76.5706 134.75 77.3719C135.072 77.5436 135.448 77.6173 135.822 77.5816C136.576 77.4234 137.264 77.08 137.804 76.5912C138.05 76.3985 138.312 76.222 138.587 76.0632C139.9 75.3866 141.313 74.8718 142.785 74.5332C143.943 74.2461 145.123 74.0378 146.317 73.91C148.111 73.7353 149.916 73.6655 151.721 73.701C151.852 73.7027 151.979 73.7092 152.101 73.7159C152.435 73.7752 152.78 73.7565 153.103 73.6617C153.426 73.5669 153.715 73.3992 153.942 73.1754C154.438 72.6118 154.679 71.9055 154.616 71.1943L154.604 70.9669C154.6 70.7811 154.551 70.5982 154.461 70.43C154.371 70.2618 154.243 70.1119 154.083 69.9901C153.918 69.9012 153.733 69.8431 153.541 69.8191C153.349 69.7952 153.154 69.806 152.967 69.8508C152.886 69.862 152.806 69.8733 152.725 69.8779C152.494 69.8945 152.262 69.9081 152.031 69.9223C151.795 69.9361 151.56 69.9502 151.332 69.9666C149.599 70.0654 147.808 70.1673 146.051 70.3384L145.799 70.3626C145.105 70.4286 144.511 70.4985 144.003 70.559C144.628 70.1324 145.254 69.6671 145.873 69.1686C145.982 69.0859 146.09 68.9962 146.2 68.905C146.289 68.8304 146.381 68.755 146.475 68.6816L146.489 68.67C146.99 68.2392 147.502 67.7836 147.984 67.328C148.072 67.2574 148.155 67.1827 148.234 67.1043L148.371 66.9746C149.601 65.7962 150.734 64.542 151.761 63.2215C152.415 62.3887 152.979 61.619 153.486 60.8671L153.763 60.4556C154.99 58.9871 155.697 57.2322 155.796 55.411C155.771 54.9791 155.689 54.5513 155.551 54.1362C154.635 51.8045 152.72 49.8807 150.215 48.7762C149.408 48.4104 148.543 48.1532 147.65 48.0129C145.153 47.678 142.603 48.1461 140.466 49.3314C140.382 49.3678 140.302 49.4103 140.226 49.4587C139.237 49.9563 138.292 50.5192 137.4 51.1425L137.324 51.1944L137.284 51.2705C137.067 51.6956 137.027 52.1742 137.17 52.6229C137.309 53.1578 137.634 53.6414 138.099 54.0068C138.328 54.2047 138.607 54.3514 138.914 54.4345C139.22 54.5176 139.544 54.5346 139.86 54.4842L139.963 54.4662L140.043 54.4055C140.196 54.2875 140.363 54.1684 140.53 54.0537C141.066 53.6559 141.629 53.2881 142.217 52.9526L142.305 52.9024C142.341 52.8847 142.377 52.8647 142.41 52.8426C142.974 52.5147 143.587 52.2578 144.232 52.0793C144.482 52.0221 144.738 51.9863 144.996 51.9723C145.796 51.9439 146.592 52.0829 147.319 52.3778C148.046 52.6727 148.684 53.1152 149.179 53.669C149.655 54.1883 149.982 54.8007 150.133 55.4547C150.284 56.1086 150.254 56.785 150.046 57.4266C149.04 59.8202 147.505 62.0143 145.529 63.8819Z" fill="#2E79BD"/>
<path d="M68.9759 93.9934C71.5805 93.9926 74.1037 93.1945 76.1136 91.7356C78.1235 90.2767 79.4949 88.2478 79.9931 85.9963L81.7063 78.2188C81.9336 76.7466 81.8006 75.2487 81.3161 73.8256C80.8317 72.4025 80.007 71.0872 78.8975 69.968C77.788 68.8488 76.4194 67.9518 74.8837 67.337C73.3479 66.7222 71.6805 66.404 69.9935 66.4038H67.9584C66.2714 66.404 64.604 66.7222 63.0682 67.337C61.5325 67.9518 60.1639 68.8488 59.0544 69.968C57.9449 71.0872 57.1202 72.4025 56.6357 73.8256C56.1512 75.2487 56.0182 76.7466 56.2455 78.2188L57.9589 85.9963C58.4571 88.2478 59.8285 90.2766 61.8383 91.7355C63.8482 93.1945 66.3714 93.9926 68.9759 93.9934Z" fill="#2D3E50"/>
<path d="M124.283 82.1099C123.004 81.4725 121.49 81.3082 120.074 81.653C118.658 81.9978 117.455 82.8235 116.73 83.9488L105.781 101C105.781 101 82.3534 98.2723 80.4652 98.0612C80.2732 98.0381 80.0791 98.0322 79.8858 98.0436H79.8658C79.7959 98.0348 79.736 98.026 79.676 98.0172C79.3153 97.9744 78.9485 97.9954 78.5971 98.0788L78.3073 97.9996L72.6728 102.962L69.6358 105.619L68.8465 106.332L68.6467 106.508L68.427 106.305V106.244L68.387 106.279L68.347 106.244V106.305L68.1272 106.508L67.1382 105.619L64.1011 102.962L58.4666 97.9996L58.177 98.0788C57.8255 97.9957 57.4587 97.9748 57.098 98.0172C55.04 98.2548 46.3285 99.8297 43.1516 100.41C42.2224 100.567 41.3708 100.972 40.714 101.572C40.2489 102.012 39.8494 102.503 39.5251 103.032L31.8325 115.579L28.6956 120.682L28.346 121.253C27.9177 121.963 27.6888 122.753 27.6784 123.557C27.6679 124.36 27.8763 125.154 28.286 125.872L38.7957 144.208C39.346 145.169 40.2551 145.934 41.3702 146.375C42.4854 146.815 43.7387 146.905 44.9198 146.628C45.1601 146.582 45.3945 146.514 45.619 146.425C45.9738 146.298 46.3093 146.132 46.6181 145.933V150.074C46.618 155.016 48.8304 159.759 52.7755 163.275C56.7206 166.79 62.0803 168.793 67.692 168.851C73.3037 168.909 78.7149 167.016 82.752 163.582C86.7891 160.149 89.1265 155.453 89.2573 150.512C89.5228 140.403 89.7875 129.481 90.0558 121.095C90.0658 120.831 90.1058 119.529 90.1557 118.024C90.1557 117.919 90.1657 117.805 90.1657 117.69C90.2456 115.42 90.3256 112.86 90.3256 112.807L103.193 112.728L108.818 112.693H109.497C110.624 112.684 111.726 112.398 112.678 111.866C113.629 111.334 114.393 110.578 114.882 109.684L126.54 88.4887C127.152 87.3715 127.259 86.0913 126.84 84.9071C126.421 83.7229 125.507 82.7231 124.283 82.1099ZM46.6181 136.378L40.8937 124.368L46.6181 117.673V136.378Z" fill="#2D3E50"/>
<path d="M189.328 20.1481H57.7236C56.806 20.148 55.8973 20.3071 55.0496 20.6163C54.2018 20.9255 53.4315 21.3788 52.7826 21.9502C52.1338 22.5216 51.6191 23.2 51.268 23.9466C50.9169 24.6933 50.7362 25.4935 50.7363 26.3016V27.4508C50.737 29.0832 51.4732 30.6486 52.7832 31.8034C54.0932 32.9583 55.87 33.6081 57.7236 33.6103V64.1167C60.5452 62.3447 63.8984 61.3462 67.3621 61.2466V38.183H179.697V104.175H124.434L120.167 111.934C120.029 112.184 119.884 112.427 119.725 112.664H183.48C185.031 112.663 186.518 112.12 187.615 111.155C188.711 110.189 189.327 108.879 189.328 107.514V33.6104C191.183 33.6094 192.961 32.9602 194.273 31.8053C195.584 30.6503 196.321 29.0842 196.322 27.4508V26.3017C196.322 25.4931 196.141 24.6924 195.79 23.9455C195.438 23.1985 194.923 22.5199 194.273 21.9485C193.624 21.377 192.853 20.9238 192.004 20.6149C191.156 20.306 190.246 20.1474 189.328 20.1481Z" fill="#2E79BD"/>
<path d="M59.8462 214C59.5895 214 59.3795 213.93 59.2162 213.79C59.0529 213.627 58.9712 213.417 58.9712 213.16V190.375C58.9712 190.118 59.0529 189.908 59.2162 189.745C59.3795 189.582 59.5895 189.5 59.8462 189.5H62.6112C63.1012 189.5 63.4512 189.722 63.6612 190.165L70.4162 202.765L77.2412 190.165C77.4745 189.722 77.8245 189.5 78.2912 189.5H81.0212C81.2779 189.5 81.4879 189.582 81.6512 189.745C81.8145 189.908 81.8962 190.118 81.8962 190.375V213.16C81.8962 213.417 81.8145 213.627 81.6512 213.79C81.4879 213.93 81.2779 214 81.0212 214H78.0812C77.8479 214 77.6495 213.918 77.4862 213.755C77.3229 213.592 77.2412 213.393 77.2412 213.16V198.005L72.3412 207.35C72.0379 207.863 71.6412 208.12 71.1512 208.12H69.7162C69.2262 208.12 68.8295 207.863 68.5262 207.35L63.6262 198.005V213.16C63.6262 213.393 63.5445 213.592 63.3812 213.755C63.2412 213.918 63.0429 214 62.7862 214H59.8462ZM94.7604 214.35C92.1704 214.35 90.1054 213.603 88.5654 212.11C87.0487 210.593 86.2437 208.47 86.1504 205.74L86.1154 204.865L86.1504 203.99C86.267 201.33 87.0837 199.242 88.6004 197.725C90.1404 196.208 92.1937 195.45 94.7604 195.45C97.5137 195.45 99.637 196.29 101.13 197.97C102.647 199.65 103.405 201.89 103.405 204.69V205.425C103.405 205.658 103.324 205.857 103.16 206.02C102.997 206.183 102.787 206.265 102.53 206.265H90.9104V206.545C90.957 207.828 91.307 208.913 91.9604 209.8C92.637 210.663 93.5587 211.095 94.7254 211.095C96.102 211.095 97.2104 210.558 98.0504 209.485C98.2604 209.228 98.4237 209.065 98.5404 208.995C98.6804 208.925 98.8787 208.89 99.1354 208.89H102.145C102.355 208.89 102.53 208.96 102.67 209.1C102.834 209.217 102.915 209.368 102.915 209.555C102.915 210.115 102.577 210.78 101.9 211.55C101.247 212.297 100.302 212.95 99.0654 213.51C97.8287 214.07 96.3937 214.35 94.7604 214.35ZM98.6454 203.325V203.22C98.6454 201.843 98.2954 200.735 97.5954 199.895C96.9187 199.055 95.9737 198.635 94.7604 198.635C93.547 198.635 92.602 199.055 91.9254 199.895C91.2487 200.735 90.9104 201.843 90.9104 203.22V203.325H98.6454ZM107.961 214C107.727 214 107.529 213.918 107.366 213.755C107.202 213.592 107.121 213.393 107.121 213.16V196.64C107.121 196.407 107.202 196.208 107.366 196.045C107.529 195.882 107.727 195.8 107.961 195.8H110.831C111.064 195.8 111.262 195.882 111.426 196.045C111.589 196.208 111.671 196.407 111.671 196.64V198.075C113.047 196.325 114.996 195.45 117.516 195.45C119.662 195.45 121.366 196.162 122.626 197.585C123.886 198.985 124.516 200.898 124.516 203.325V213.16C124.516 213.393 124.434 213.592 124.271 213.755C124.131 213.918 123.932 214 123.676 214H120.596C120.362 214 120.164 213.918 120.001 213.755C119.837 213.592 119.756 213.393 119.756 213.16V203.535C119.756 202.158 119.417 201.097 118.741 200.35C118.087 199.58 117.131 199.195 115.871 199.195C114.634 199.195 113.654 199.58 112.931 200.35C112.231 201.12 111.881 202.182 111.881 203.535V213.16C111.881 213.393 111.799 213.592 111.636 213.755C111.496 213.918 111.297 214 111.041 214H107.961ZM136.981 214C134.858 214 133.26 213.452 132.186 212.355C131.136 211.235 130.611 209.602 130.611 207.455V199.51H127.846C127.613 199.51 127.415 199.428 127.251 199.265C127.088 199.078 127.006 198.868 127.006 198.635V196.64C127.006 196.407 127.088 196.208 127.251 196.045C127.415 195.882 127.613 195.8 127.846 195.8H130.611V189.99C130.611 189.733 130.693 189.535 130.856 189.395C131.02 189.232 131.218 189.15 131.451 189.15H134.286C134.543 189.15 134.741 189.232 134.881 189.395C135.045 189.535 135.126 189.733 135.126 189.99V195.8H139.501C139.758 195.8 139.956 195.882 140.096 196.045C140.26 196.185 140.341 196.383 140.341 196.64V198.635C140.341 198.892 140.26 199.102 140.096 199.265C139.933 199.428 139.735 199.51 139.501 199.51H135.126V207.105C135.126 208.108 135.301 208.867 135.651 209.38C136.001 209.893 136.585 210.15 137.401 210.15H139.816C140.05 210.15 140.248 210.232 140.411 210.395C140.575 210.558 140.656 210.757 140.656 210.99V213.16C140.656 213.393 140.575 213.592 140.411 213.755C140.271 213.918 140.073 214 139.816 214H136.981ZM151.811 214.35C149.081 214.35 146.97 213.65 145.476 212.25C143.983 210.827 143.178 208.89 143.061 206.44L143.026 204.9L143.061 203.36C143.178 200.933 143.995 199.008 145.511 197.585C147.028 196.162 149.128 195.45 151.811 195.45C154.495 195.45 156.595 196.162 158.111 197.585C159.628 199.008 160.445 200.933 160.561 203.36C160.585 203.64 160.596 204.153 160.596 204.9C160.596 205.647 160.585 206.16 160.561 206.44C160.445 208.89 159.64 210.827 158.146 212.25C156.653 213.65 154.541 214.35 151.811 214.35ZM151.811 210.885C153.048 210.885 154.005 210.5 154.681 209.73C155.358 208.937 155.731 207.782 155.801 206.265C155.825 206.032 155.836 205.577 155.836 204.9C155.836 204.223 155.825 203.768 155.801 203.535C155.731 202.018 155.358 200.875 154.681 200.105C154.005 199.312 153.048 198.915 151.811 198.915C150.575 198.915 149.618 199.312 148.941 200.105C148.265 200.875 147.891 202.018 147.821 203.535L147.786 204.9L147.821 206.265C147.891 207.782 148.265 208.937 148.941 209.73C149.618 210.5 150.575 210.885 151.811 210.885ZM165.314 214C165.081 214 164.882 213.918 164.719 213.755C164.556 213.592 164.474 213.393 164.474 213.16V196.675C164.474 196.442 164.556 196.243 164.719 196.08C164.882 195.893 165.081 195.8 165.314 195.8H168.149C168.406 195.8 168.616 195.882 168.779 196.045C168.942 196.208 169.024 196.418 169.024 196.675V198.11C169.584 197.363 170.284 196.792 171.124 196.395C171.987 195.998 172.967 195.8 174.064 195.8H175.499C175.756 195.8 175.954 195.882 176.094 196.045C176.257 196.185 176.339 196.383 176.339 196.64V199.16C176.339 199.393 176.257 199.592 176.094 199.755C175.954 199.918 175.756 200 175.499 200H172.769C171.672 200 170.809 200.315 170.179 200.945C169.549 201.575 169.234 202.438 169.234 203.535V213.16C169.234 213.393 169.152 213.592 168.989 213.755C168.826 213.918 168.616 214 168.359 214H165.314Z" fill="black"/>
</svg>
