
<svg width="244" height="250" viewBox="0 0 244 250" fill="none" xmlns="http://www.w3.org/2000/svg">
<rect width="244" height="250" rx="34" fill="#F5F6FA"/>
<path d="M204.5 146.938C201.2 146.938 199 145 199 142.094V79.125C199 76.2187 201.2 74.2812 204.5 74.2812C207.8 74.2812 210 76.2187 210 79.125V142.094C210 145 207.8 146.938 204.5 146.938Z" fill="black"/>
<path d="M122 122.719C120.9 122.719 120.35 122.719 119.25 122.234L36.75 83.4843C35.1 82.5155 34 81.0624 34 79.1249C34 77.1874 35.1 75.7343 36.75 74.7655L119.25 36.0155C120.9 35.0468 122.55 35.0468 124.2 36.0155L206.7 74.7655C208.35 75.7343 209.45 77.1874 209.45 79.1249C209.45 81.0624 208.35 82.5155 206.7 83.4843L124.2 122.234C123.65 122.719 123.1 122.719 122 122.719Z" fill="black"/>
<path d="M129.7 130.469C127.5 131.922 124.75 132.406 122 132.406C119.25 132.406 116.5 131.922 114.3 130.469L67 108.672V127.562C67 142.578 93.95 156.625 122 156.625C150.05 156.625 177 142.578 177 127.562V108.672L129.7 130.469Z" fill="black"/>
<path d="M68.7998 222C68.5432 222 68.3332 221.93 68.1698 221.79C68.0065 221.627 67.9248 221.417 67.9248 221.16V198.375C67.9248 198.118 68.0065 197.908 68.1698 197.745C68.3332 197.582 68.5432 197.5 68.7998 197.5H71.5648C72.0548 197.5 72.4048 197.722 72.6148 198.165L79.3698 210.765L86.1948 198.165C86.4282 197.722 86.7782 197.5 87.2448 197.5H89.9748C90.2315 197.5 90.4415 197.582 90.6048 197.745C90.7682 197.908 90.8498 198.118 90.8498 198.375V221.16C90.8498 221.417 90.7682 221.627 90.6048 221.79C90.4415 221.93 90.2315 222 89.9748 222H87.0348C86.8015 222 86.6032 221.918 86.4398 221.755C86.2765 221.592 86.1948 221.393 86.1948 221.16V206.005L81.2948 215.35C80.9915 215.863 80.5948 216.12 80.1048 216.12H78.6698C78.1798 216.12 77.7832 215.863 77.4798 215.35L72.5798 206.005V221.16C72.5798 221.393 72.4982 221.592 72.3348 221.755C72.1948 221.918 71.9965 222 71.7398 222H68.7998ZM103.714 222.35C101.124 222.35 99.059 221.603 97.519 220.11C96.0023 218.593 95.1973 216.47 95.104 213.74L95.069 212.865L95.104 211.99C95.2206 209.33 96.0373 207.242 97.554 205.725C99.094 204.208 101.147 203.45 103.714 203.45C106.467 203.45 108.591 204.29 110.084 205.97C111.601 207.65 112.359 209.89 112.359 212.69V213.425C112.359 213.658 112.277 213.857 112.114 214.02C111.951 214.183 111.741 214.265 111.484 214.265H99.864V214.545C99.9106 215.828 100.261 216.913 100.914 217.8C101.591 218.663 102.512 219.095 103.679 219.095C105.056 219.095 106.164 218.558 107.004 217.485C107.214 217.228 107.377 217.065 107.494 216.995C107.634 216.925 107.832 216.89 108.089 216.89H111.099C111.309 216.89 111.484 216.96 111.624 217.1C111.787 217.217 111.869 217.368 111.869 217.555C111.869 218.115 111.531 218.78 110.854 219.55C110.201 220.297 109.256 220.95 108.019 221.51C106.782 222.07 105.347 222.35 103.714 222.35ZM107.599 211.325V211.22C107.599 209.843 107.249 208.735 106.549 207.895C105.872 207.055 104.927 206.635 103.714 206.635C102.501 206.635 101.556 207.055 100.879 207.895C100.202 208.735 99.864 209.843 99.864 211.22V211.325H107.599ZM116.914 222C116.681 222 116.482 221.918 116.319 221.755C116.156 221.592 116.074 221.393 116.074 221.16V204.64C116.074 204.407 116.156 204.208 116.319 204.045C116.482 203.882 116.681 203.8 116.914 203.8H119.784C120.017 203.8 120.216 203.882 120.379 204.045C120.542 204.208 120.624 204.407 120.624 204.64V206.075C122.001 204.325 123.949 203.45 126.469 203.45C128.616 203.45 130.319 204.162 131.579 205.585C132.839 206.985 133.469 208.898 133.469 211.325V221.16C133.469 221.393 133.387 221.592 133.224 221.755C133.084 221.918 132.886 222 132.629 222H129.549C129.316 222 129.117 221.918 128.954 221.755C128.791 221.592 128.709 221.393 128.709 221.16V211.535C128.709 210.158 128.371 209.097 127.694 208.35C127.041 207.58 126.084 207.195 124.824 207.195C123.587 207.195 122.607 207.58 121.884 208.35C121.184 209.12 120.834 210.182 120.834 211.535V221.16C120.834 221.393 120.752 221.592 120.589 221.755C120.449 221.918 120.251 222 119.994 222H116.914ZM145.935 222C143.812 222 142.213 221.452 141.14 220.355C140.09 219.235 139.565 217.602 139.565 215.455V207.51H136.8C136.567 207.51 136.368 207.428 136.205 207.265C136.042 207.078 135.96 206.868 135.96 206.635V204.64C135.96 204.407 136.042 204.208 136.205 204.045C136.368 203.882 136.567 203.8 136.8 203.8H139.565V197.99C139.565 197.733 139.647 197.535 139.81 197.395C139.973 197.232 140.172 197.15 140.405 197.15H143.24C143.497 197.15 143.695 197.232 143.835 197.395C143.998 197.535 144.08 197.733 144.08 197.99V203.8H148.455C148.712 203.8 148.91 203.882 149.05 204.045C149.213 204.185 149.295 204.383 149.295 204.64V206.635C149.295 206.892 149.213 207.102 149.05 207.265C148.887 207.428 148.688 207.51 148.455 207.51H144.08V215.105C144.08 216.108 144.255 216.867 144.605 217.38C144.955 217.893 145.538 218.15 146.355 218.15H148.77C149.003 218.15 149.202 218.232 149.365 218.395C149.528 218.558 149.61 218.757 149.61 218.99V221.16C149.61 221.393 149.528 221.592 149.365 221.755C149.225 221.918 149.027 222 148.77 222H145.935ZM160.555 222.35C157.965 222.35 155.9 221.603 154.36 220.11C152.843 218.593 152.038 216.47 151.945 213.74L151.91 212.865L151.945 211.99C152.061 209.33 152.878 207.242 154.395 205.725C155.935 204.208 157.988 203.45 160.555 203.45C163.308 203.45 165.431 204.29 166.925 205.97C168.441 207.65 169.2 209.89 169.2 212.69V213.425C169.2 213.658 169.118 213.857 168.955 214.02C168.791 214.183 168.581 214.265 168.325 214.265H156.705V214.545C156.751 215.828 157.101 216.913 157.755 217.8C158.431 218.663 159.353 219.095 160.52 219.095C161.896 219.095 163.005 218.558 163.845 217.485C164.055 217.228 164.218 217.065 164.335 216.995C164.475 216.925 164.673 216.89 164.93 216.89H167.94C168.15 216.89 168.325 216.96 168.465 217.1C168.628 217.217 168.71 217.368 168.71 217.555C168.71 218.115 168.371 218.78 167.695 219.55C167.041 220.297 166.096 220.95 164.86 221.51C163.623 222.07 162.188 222.35 160.555 222.35ZM164.44 211.325V211.22C164.44 209.843 164.09 208.735 163.39 207.895C162.713 207.055 161.768 206.635 160.555 206.635C159.341 206.635 158.396 207.055 157.72 207.895C157.043 208.735 156.705 209.843 156.705 211.22V211.325H164.44ZM180.755 222.35C178.165 222.35 176.1 221.603 174.56 220.11C173.043 218.593 172.238 216.47 172.145 213.74L172.11 212.865L172.145 211.99C172.262 209.33 173.078 207.242 174.595 205.725C176.135 204.208 178.188 203.45 180.755 203.45C183.508 203.45 185.632 204.29 187.125 205.97C188.642 207.65 189.4 209.89 189.4 212.69V213.425C189.4 213.658 189.318 213.857 189.155 214.02C188.992 214.183 188.782 214.265 188.525 214.265H176.905V214.545C176.952 215.828 177.302 216.913 177.955 217.8C178.632 218.663 179.553 219.095 180.72 219.095C182.097 219.095 183.205 218.558 184.045 217.485C184.255 217.228 184.418 217.065 184.535 216.995C184.675 216.925 184.873 216.89 185.13 216.89H188.14C188.35 216.89 188.525 216.96 188.665 217.1C188.828 217.217 188.91 217.368 188.91 217.555C188.91 218.115 188.572 218.78 187.895 219.55C187.242 220.297 186.297 220.95 185.06 221.51C183.823 222.07 182.388 222.35 180.755 222.35ZM184.64 211.325V211.22C184.64 209.843 184.29 208.735 183.59 207.895C182.913 207.055 181.968 206.635 180.755 206.635C179.542 206.635 178.597 207.055 177.92 207.895C177.243 208.735 176.905 209.843 176.905 211.22V211.325H184.64Z" fill="black"/>
</svg>
