<svg width="21" height="17" viewBox="0 0 21 17" fill="none" xmlns="http://www.w3.org/2000/svg">
<g clip-path="url(#clip0)">
<path d="M10.5 1.0625C4.70043 1.0625 3.65856e-05 4.15371 3.65856e-05 7.96875C3.65856e-05 9.54922 0.816247 10.9969 2.16976 12.1623C1.55863 13.4705 0.287146 14.5795 0.266638 14.5928C-0.00406498 14.8252 -0.0778931 15.1639 0.0779663 15.4561C0.233826 15.7482 0.590661 15.9375 0.984411 15.9375C3.50687 15.9375 5.49613 15.0842 6.68968 14.4002C7.87503 14.7023 9.15472 14.875 10.5 14.875C16.2996 14.875 21 11.7838 21 7.96875C21 4.15371 16.2996 1.0625 10.5 1.0625ZM10.5 13.2812C9.40492 13.2812 8.32211 13.1451 7.28441 12.8795L6.35336 12.6404L5.55355 13.0986C4.96703 13.434 4.16312 13.8092 3.19515 14.0615C3.49457 13.6598 3.78578 13.2082 4.01136 12.7268L4.44613 11.7938L3.60121 11.0699C2.85882 10.4291 1.96879 9.36992 1.96879 7.96875C1.96879 5.04023 5.79554 2.65625 10.5 2.65625C15.2045 2.65625 19.0313 5.04023 19.0313 7.96875C19.0313 10.8973 15.2045 13.2812 10.5 13.2812Z" fill="black"/>
</g>
<defs>
<clipPath id="clip0">
<rect width="21" height="17" fill="white"/>
</clipPath>
</defs>
</svg>
